<svg xmlns="http://www.w3.org/2000/svg" xmlns:xlink="http://www.w3.org/1999/xlink" version="1.1" id="Layer_1" x="0px" y="0px" enable-background="new 0 0 1500 1500" xml:space="preserve" viewBox="408.1 574.5 585.2 334.8">
<g>
	<g>
		<g>
			<g>
				<polygon fill="#00C389" points="562.1,882.6 461.5,742.8 408.1,742.8 408.1,707.1 479.8,707.1 555,811.5 661.7,574.5       784.9,574.5 784.9,610.3 684.8,610.3     "/>
			</g>
		</g>
		<g>
			<path fill="#003057" d="M735.6,842.6l66.7,66.7h-50.6L649.3,806.8h90.4c19.1,0,34.6-15.5,34.6-34.6c0-19.1-15.5-34.6-34.6-34.6     h-76.8l16.1-35.7h60.8c38.8,0,70.4,31.6,70.4,70.4c0,38.8-31.6,70.4-70.4,70.4H735.6z"/>
		</g>
		<g>
			<path fill="#003057" d="M993.3,850.3L993.3,850.3c0,32.6-26.4,58.9-58.9,58.9h-88.5L809.6,873h122.4c13.8,0,25-11.2,25-25v0     c0-13.8-11.2-25-25-25h-25.8c-36.7,0-65.6-34-56.8-72.2c6.7-29.1,33.9-49,63.7-49h71.7L968.6,738l-55.4,0     c-10.2,0-20.1,4.9-25.3,13.6c-10.4,17.3,2,35.2,18.4,35.2h23.6C964.9,786.9,993.3,815.2,993.3,850.3z"/>
		</g>
	</g>
</g>
</svg>